<svg xmlns="http://www.w3.org/2000/svg" width="485" height="774" viewBox="0 0 485 774">
  <g id="Icon" transform="translate(-87 -26)">
    <rect id="Note_Bg" data-name="Note Bg" width="485" height="717" rx="62" transform="translate(87 83)" fill="#b71c1c"/>
    <rect id="Note_Bg-2" data-name="Note Bg" width="170" height="159" rx="35" transform="translate(146 135)" fill="#ff2121"/>
    <rect id="Note_Bg-3" data-name="Note Bg" width="170" height="104" rx="35" transform="translate(146 307)" fill="#ff2121"/>
    <rect id="Note_Bg-4" data-name="Note Bg" width="170" height="189" rx="35" transform="translate(146 424)" fill="#ff2121"/>
    <rect id="Note_Bg-5" data-name="Note Bg" width="170" height="118" rx="35" transform="translate(146 626)" fill="#ff2121"/>
    <rect id="Note_Bg-6" data-name="Note Bg" width="170" height="135" rx="35" transform="translate(345 379)" fill="#ff2121"/>
    <rect id="Note_Bg-7" data-name="Note Bg" width="170" height="182" rx="35" transform="translate(345 527)" fill="#ff2121"/>
    <rect id="Note_Bg-8" data-name="Note Bg" width="170" height="236" rx="35" transform="translate(345 130)" fill="#ff2121"/>
    <rect id="Rectangle_6" data-name="Rectangle 6" width="116" height="7" rx="3.5" transform="translate(366 189)" fill="#cfcfcf"/>
    <rect id="Rectangle_29" data-name="Rectangle 29" width="116" height="7" rx="3.5" transform="translate(172 532)" fill="#cfcfcf"/>
    <rect id="Rectangle_37" data-name="Rectangle 37" width="116" height="7" rx="3.5" transform="translate(172 673)" fill="#cfcfcf"/>
    <rect id="Rectangle_15" data-name="Rectangle 15" width="110" height="7" rx="3.5" transform="translate(366 235)" fill="#cfcfcf"/>
    <rect id="Rectangle_9" data-name="Rectangle 9" width="121" height="7" rx="3.5" transform="translate(171 181)" fill="#cfcfcf"/>
    <rect id="Rectangle_43" data-name="Rectangle 43" width="121" height="7" rx="3.5" transform="translate(366 581)" fill="#cfcfcf"/>
    <rect id="Rectangle_7" data-name="Rectangle 7" width="73" height="6" rx="3" transform="translate(366 201)" fill="#cfcfcf"/>
    <rect id="Rectangle_30" data-name="Rectangle 30" width="73" height="6" rx="3" transform="translate(172 544)" fill="#cfcfcf"/>
    <rect id="Rectangle_35" data-name="Rectangle 35" width="73" height="6" rx="3" transform="translate(172 685)" fill="#cfcfcf"/>
    <rect id="Rectangle_16" data-name="Rectangle 16" width="73" height="6" rx="3" transform="translate(366 247)" fill="#cfcfcf"/>
    <rect id="Rectangle_10" data-name="Rectangle 10" width="113" height="7" rx="3.5" transform="translate(171 195)" fill="#cfcfcf"/>
    <rect id="Rectangle_42" data-name="Rectangle 42" width="113" height="7" rx="3.5" transform="translate(366 595)" fill="#cfcfcf"/>
    <rect id="Rectangle_25" data-name="Rectangle 25" width="113" height="7" rx="3.5" transform="translate(172 345)" fill="#cfcfcf"/>
    <rect id="Rectangle_8" data-name="Rectangle 8" width="89" height="6" rx="3" transform="translate(366 213)" fill="#cfcfcf"/>
    <rect id="Rectangle_31" data-name="Rectangle 31" width="89" height="6" rx="3" transform="translate(172 556)" fill="#cfcfcf"/>
    <rect id="Rectangle_36" data-name="Rectangle 36" width="89" height="6" rx="3" transform="translate(172 697)" fill="#cfcfcf"/>
    <rect id="Rectangle_17" data-name="Rectangle 17" width="89" height="6" rx="3" transform="translate(366 259)" fill="#cfcfcf"/>
    <rect id="Rectangle_11" data-name="Rectangle 11" width="67" height="8" rx="4" transform="translate(171 208)" fill="#cfcfcf"/>
    <rect id="Rectangle_41" data-name="Rectangle 41" width="67" height="8" rx="4" transform="translate(366 608)" fill="#cfcfcf"/>
    <rect id="Rectangle_32" data-name="Rectangle 32" width="67" height="8" rx="4" transform="translate(366 429)" fill="#cfcfcf"/>
    <rect id="Rectangle_24" data-name="Rectangle 24" width="67" height="8" rx="4" transform="translate(172 358)" fill="#cfcfcf"/>
    <rect id="Rectangle_12" data-name="Rectangle 12" width="83" height="8" rx="4" transform="translate(171 222)" fill="#cfcfcf"/>
    <rect id="Rectangle_40" data-name="Rectangle 40" width="83" height="8" rx="4" transform="translate(366 622)" fill="#cfcfcf"/>
    <rect id="Rectangle_33" data-name="Rectangle 33" width="110" height="8" rx="4" transform="translate(366 443)" fill="#cfcfcf"/>
    <rect id="Rectangle_23" data-name="Rectangle 23" width="83" height="8" rx="4" transform="translate(172 372)" fill="#cfcfcf"/>
    <rect id="Rectangle_20" data-name="Rectangle 20" width="83" height="8" rx="4" transform="translate(366 284)" fill="#cfcfcf"/>
    <rect id="Rectangle_28" data-name="Rectangle 28" width="83" height="8" rx="4" transform="translate(171 470)" fill="#cfcfcf"/>
    <rect id="Rectangle_13" data-name="Rectangle 13" width="52" height="8" rx="4" transform="translate(171 236)" fill="#cfcfcf"/>
    <rect id="Rectangle_39" data-name="Rectangle 39" width="52" height="8" rx="4" transform="translate(366 636)" fill="#cfcfcf"/>
    <rect id="Rectangle_34" data-name="Rectangle 34" width="52" height="8" rx="4" transform="translate(366 457)" fill="#cfcfcf"/>
    <rect id="Rectangle_19" data-name="Rectangle 19" width="52" height="8" rx="4" transform="translate(366 298)" fill="#cfcfcf"/>
    <rect id="Rectangle_27" data-name="Rectangle 27" width="52" height="8" rx="4" transform="translate(171 484)" fill="#cfcfcf"/>
    <rect id="Rectangle_14" data-name="Rectangle 14" width="107" height="8" rx="4" transform="translate(171 250)" fill="#cfcfcf"/>
    <rect id="Rectangle_38" data-name="Rectangle 38" width="107" height="8" rx="4" transform="translate(366 650)" fill="#cfcfcf"/>
    <rect id="Rectangle_18" data-name="Rectangle 18" width="107" height="8" rx="4" transform="translate(366 312)" fill="#cfcfcf"/>
    <rect id="Rectangle_26" data-name="Rectangle 26" width="107" height="8" rx="4" transform="translate(171 498)" fill="#cfcfcf"/>
    <circle id="Ellipse_1" data-name="Ellipse 1" cx="8.5" cy="8.5" r="8.5" transform="translate(284 146)" fill="#ffc114"/>
    <circle id="Ellipse_3" data-name="Ellipse 3" cx="8.5" cy="8.5" r="8.5" transform="translate(284 319)" fill="#00c980"/>
    <circle id="Ellipse_5" data-name="Ellipse 5" cx="8.5" cy="8.5" r="8.5" transform="translate(284 438)" fill="#fff"/>
    <circle id="Ellipse_7" data-name="Ellipse 7" cx="8.5" cy="8.5" r="8.5" transform="translate(284 638)" fill="#ffc114"/>
    <circle id="Ellipse_2" data-name="Ellipse 2" cx="8.5" cy="8.5" r="8.5" transform="translate(482 146)" fill="#00c980"/>
    <circle id="Ellipse_4" data-name="Ellipse 4" cx="8.5" cy="8.5" r="8.5" transform="translate(482 390)" fill="#ffc114"/>
    <circle id="Ellipse_6" data-name="Ellipse 6" cx="8.5" cy="8.5" r="8.5" transform="translate(482 538)" fill="#fff"/>
    <path id="Rectangle_44" data-name="Rectangle 44" d="M50,0H232a50,50,0,0,1,50,50v7a0,0,0,0,1,0,0H0a0,0,0,0,1,0,0V50A50,50,0,0,1,50,0Z" transform="translate(189 26)" fill="#c62828"/>
    <text id="TO_DO" data-name="TO DO" transform="translate(285 66)" fill="#fff" font-size="28" font-family="SegoeUIBlack, Segoe UI"><tspan x="0" y="0">TO DO</tspan></text>
  </g>
</svg>
